<mxfile host="app.diagrams.net" agent="Mozilla/5.0 (Windows NT 10.0; Win64; x64) AppleWebKit/537.36 (KHTML, like Gecko) Chrome/131.0.0.0 Safari/537.36" version="25.0.1">
  <diagram name="Page-1" id="8378b5f6-a2b2-b727-a746-972ab9d02e00">
    <mxGraphModel dx="1173" dy="677" grid="1" gridSize="10" guides="1" tooltips="1" connect="0" arrows="1" fold="1" page="1" pageScale="1.5" pageWidth="1169" pageHeight="827" background="none" math="0" shadow="0">
      <root>
        <mxCell id="0" />
        <mxCell id="1" parent="0" />
        <mxCell id="63" value="0" style="strokeColor=#DEEDFF;fillColor=#ADC3D9" parent="1" vertex="1">
          <mxGeometry x="40" y="360" width="40" height="20" as="geometry" />
        </mxCell>
        <mxCell id="64" value="Completar el proyecto" style="align=left;strokeColor=#DEEDFF;fillColor=#ADC3D9" parent="1" vertex="1">
          <mxGeometry x="80" y="360" width="420" height="20" as="geometry" />
        </mxCell>
        <mxCell id="68" value="" style="strokeColor=#DEEDFF" parent="1" vertex="1">
          <mxGeometry x="500" y="360" width="20" height="610" as="geometry" />
        </mxCell>
        <mxCell id="69" value="1" style="strokeColor=#DEEDFF;fillColor=#CCE5FF" parent="1" vertex="1">
          <mxGeometry x="40" y="380" width="40" height="30" as="geometry" />
        </mxCell>
        <mxCell id="70" value="Investigar acerca de dieta y estado emociones." style="align=left;strokeColor=#DEEDFF;fillColor=#CCE5FF" parent="1" vertex="1">
          <mxGeometry x="80" y="380" width="420" height="30" as="geometry" />
        </mxCell>
        <mxCell id="74" value="1.1" style="strokeColor=#DEEDFF" parent="1" vertex="1">
          <mxGeometry x="40" y="410" width="40" height="30" as="geometry" />
        </mxCell>
        <mxCell id="75" value="Revisar literatura científica sobre el impacto de las &#xa;emociones en la alimentación." style="align=left;strokeColor=#DEEDFF" parent="1" vertex="1">
          <mxGeometry x="80" y="410" width="420" height="30" as="geometry" />
        </mxCell>
        <mxCell id="79" value="1.2" style="strokeColor=#DEEDFF" parent="1" vertex="1">
          <mxGeometry x="40" y="440" width="40" height="30" as="geometry" />
        </mxCell>
        <mxCell id="80" value="Identificar bases de datos confiables sobre nutrición&#xa; y emociones." style="align=left;strokeColor=#DEEDFF" parent="1" vertex="1">
          <mxGeometry x="80" y="440" width="420" height="30" as="geometry" />
        </mxCell>
        <mxCell id="84" value="1.3" style="strokeColor=#DEEDFF" parent="1" vertex="1">
          <mxGeometry x="40" y="470" width="40" height="30" as="geometry" />
        </mxCell>
        <mxCell id="85" value="Clasificar alimentos según propiedades nutricionales&#xa; y su relación con el bienestar emocional." style="align=left;strokeColor=#DEEDFF" parent="1" vertex="1">
          <mxGeometry x="80" y="470" width="420" height="30" as="geometry" />
        </mxCell>
        <mxCell id="89" value="1.4" style="strokeColor=#DEEDFF" parent="1" vertex="1">
          <mxGeometry x="40" y="500" width="40" height="30" as="geometry" />
        </mxCell>
        <mxCell id="90" value="Analizar estudios previos de herramientas tecnológicas &#xa;aplicadas en nutrición emocional." style="align=left;strokeColor=#DEEDFF" parent="1" vertex="1">
          <mxGeometry x="80" y="500" width="420" height="30" as="geometry" />
        </mxCell>
        <mxCell id="94" value="1.5" style="strokeColor=#DEEDFF" parent="1" vertex="1">
          <mxGeometry x="40" y="530" width="40" height="30" as="geometry" />
        </mxCell>
        <mxCell id="95" value=" Sistematizar la información recolectada en un &#xa;documento base." style="align=left;strokeColor=#DEEDFF" parent="1" vertex="1">
          <mxGeometry x="80" y="530" width="420" height="30" as="geometry" />
        </mxCell>
        <mxCell id="99" value="2.1" style="strokeColor=#DEEDFF" parent="1" vertex="1">
          <mxGeometry x="40" y="580" width="40" height="30" as="geometry" />
        </mxCell>
        <mxCell id="100" value="Investigar modelos de recomendación utilizados en el &#xa;campo de la nutrición." style="align=left;strokeColor=#DEEDFF" parent="1" vertex="1">
          <mxGeometry x="80" y="580" width="420" height="30" as="geometry" />
        </mxCell>
        <mxCell id="104" value="2" style="strokeColor=#DEEDFF;fillColor=#CCE5FF" parent="1" vertex="1">
          <mxGeometry x="40.00000000000037" y="560.000000000001" width="40" height="20" as="geometry" />
        </mxCell>
        <mxCell id="105" value="Idear un plan sobre un modelo existente." style="align=left;strokeColor=#DEEDFF;fillColor=#CCE5FF" parent="1" vertex="1">
          <mxGeometry x="80" y="560" width="420" height="20" as="geometry" />
        </mxCell>
        <mxCell id="109" value="2.2" style="strokeColor=#DEEDFF" parent="1" vertex="1">
          <mxGeometry x="40" y="610" width="40" height="30" as="geometry" />
        </mxCell>
        <mxCell id="110" value="Identificar modelos de procesamiento de lenguaje&#xa;natural (PLN) aplicados en chatbots." style="align=left;strokeColor=#DEEDFF" parent="1" vertex="1">
          <mxGeometry x="80" y="610" width="420" height="30" as="geometry" />
        </mxCell>
        <mxCell id="114" value="2.3" style="strokeColor=#DEEDFF" parent="1" vertex="1">
          <mxGeometry x="40" y="640" width="40" height="20" as="geometry" />
        </mxCell>
        <mxCell id="115" value="Definir el modelo base que se adaptará para el prototipo" style="align=left;strokeColor=#DEEDFF" parent="1" vertex="1">
          <mxGeometry x="80" y="640" width="420" height="20" as="geometry" />
        </mxCell>
        <mxCell id="119" value="2.4" style="strokeColor=#DEEDFF" parent="1" vertex="1">
          <mxGeometry x="40" y="660" width="40" height="30" as="geometry" />
        </mxCell>
        <mxCell id="120" value="Establecer los parámetros clave que relacionan estados &#xa;emocionales y alimentos recomendados." style="align=left;strokeColor=#DEEDFF" parent="1" vertex="1">
          <mxGeometry x="80" y="660" width="420" height="30" as="geometry" />
        </mxCell>
        <mxCell id="124" value="2.5" style="strokeColor=#DEEDFF" parent="1" vertex="1">
          <mxGeometry x="39.999999999999986" y="690.0000000000014" width="40" height="20" as="geometry" />
        </mxCell>
        <mxCell id="125" value="Desarrollar un esquema del flujo funcional del prototipo." style="align=left;strokeColor=#DEEDFF" parent="1" vertex="1">
          <mxGeometry x="80" y="690" width="420" height="20" as="geometry" />
        </mxCell>
        <mxCell id="129" value="3.1" style="strokeColor=#DEEDFF" parent="1" vertex="1">
          <mxGeometry x="39.999999999999716" y="730.0000000000018" width="40" height="20" as="geometry" />
        </mxCell>
        <mxCell id="130" value="Diseñar la arquitectura técnica del prototipo." style="align=left;strokeColor=#DEEDFF" parent="1" vertex="1">
          <mxGeometry x="80" y="730" width="420" height="20" as="geometry" />
        </mxCell>
        <mxCell id="134" value="3.2" style="strokeColor=#DEEDFF;fillColor=#FFFFFF" parent="1" vertex="1">
          <mxGeometry x="40" y="750" width="40" height="30" as="geometry" />
        </mxCell>
        <mxCell id="135" value="Entrenar el chatbot utilizando técnicas de PLN para &#xa;análisis emocional." style="align=left;strokeColor=#DEEDFF;fillColor=#FFFFFF" parent="1" vertex="1">
          <mxGeometry x="80" y="750" width="420" height="30" as="geometry" />
        </mxCell>
        <mxCell id="139" value="3" style="strokeColor=#DEEDFF;fillColor=#CCE5FF" parent="1" vertex="1">
          <mxGeometry x="39.999999999999616" y="710.000000000002" width="40" height="20" as="geometry" />
        </mxCell>
        <mxCell id="140" value="Adaptar el modelo para desarrollar el prototipo" style="align=left;strokeColor=#DEEDFF;fillColor=#CCE5FF" parent="1" vertex="1">
          <mxGeometry x="80" y="710" width="420" height="20" as="geometry" />
        </mxCell>
        <mxCell id="144" value="3.3" style="strokeColor=#DEEDFF" parent="1" vertex="1">
          <mxGeometry x="40.000000000000995" y="780.0000000000023" width="40" height="20" as="geometry" />
        </mxCell>
        <mxCell id="145" value="Implementar el algoritmo de recomendación personal." style="align=left;strokeColor=#DEEDFF" parent="1" vertex="1">
          <mxGeometry x="80" y="780" width="420" height="20" as="geometry" />
        </mxCell>
        <mxCell id="149" value="3.4" style="strokeColor=#DEEDFF" parent="1" vertex="1">
          <mxGeometry x="40.00000000000102" y="800.0000000000022" width="40" height="20" as="geometry" />
        </mxCell>
        <mxCell id="150" value="Integrar la base de datos de alimentos en el prototipo." style="align=left;strokeColor=#DEEDFF" parent="1" vertex="1">
          <mxGeometry x="80" y="800" width="420" height="20" as="geometry" />
        </mxCell>
        <mxCell id="154" value="3.5" style="strokeColor=#DEEDFF" parent="1" vertex="1">
          <mxGeometry x="40.00000000000074" y="820.0000000000025" width="40" height="20" as="geometry" />
        </mxCell>
        <mxCell id="155" value="Realizar pruebas internas para ajustar el modelo adaptado." style="align=left;strokeColor=#DEEDFF" parent="1" vertex="1">
          <mxGeometry x="80" y="820" width="420" height="20" as="geometry" />
        </mxCell>
        <mxCell id="159" value="4.1" style="strokeColor=#DEEDFF" parent="1" vertex="1">
          <mxGeometry x="40.000000000000654" y="860.0000000000025" width="40" height="20" as="geometry" />
        </mxCell>
        <mxCell id="160" value="Diseñar un protocolo de evaluación de usabilidad." style="align=left;strokeColor=#DEEDFF" parent="1" vertex="1">
          <mxGeometry x="80" y="860" width="420" height="20" as="geometry" />
        </mxCell>
        <mxCell id="164" value="4.2" style="strokeColor=#DEEDFF" parent="1" vertex="1">
          <mxGeometry x="40" y="880" width="40" height="30" as="geometry" />
        </mxCell>
        <mxCell id="169" value="4.3" style="strokeColor=#DEEDFF" parent="1" vertex="1">
          <mxGeometry x="40" y="910" width="40" height="30" as="geometry" />
        </mxCell>
        <mxCell id="170" value="Realizar sesiones prácticas con los usuarios evaluando &#xa;la interacción con el prototipo." style="align=left;strokeColor=#DEEDFF" parent="1" vertex="1">
          <mxGeometry x="80" y="880" width="420" height="30" as="geometry" />
        </mxCell>
        <mxCell id="174" value="4.4" style="strokeColor=#DEEDFF" parent="1" vertex="1">
          <mxGeometry x="40" y="940" width="40" height="30" as="geometry" />
        </mxCell>
        <mxCell id="175" value="Recopilar y analizar datos cualitativos y cuantitativos &#xa;de las pruebas." style="align=left;strokeColor=#DEEDFF" parent="1" vertex="1">
          <mxGeometry x="80" y="910" width="420" height="30" as="geometry" />
        </mxCell>
        <mxCell id="194" value="" style="strokeColor=#DEEDFF" parent="1" vertex="1">
          <mxGeometry x="520" y="360" width="20" height="610" as="geometry" />
        </mxCell>
        <mxCell id="195" value="" style="strokeColor=#DEEDFF" parent="1" vertex="1">
          <mxGeometry x="540" y="360" width="20" height="610" as="geometry" />
        </mxCell>
        <mxCell id="196" value="" style="strokeColor=#DEEDFF" parent="1" vertex="1">
          <mxGeometry x="560" y="360" width="20" height="610" as="geometry" />
        </mxCell>
        <mxCell id="197" value="" style="strokeColor=#DEEDFF" parent="1" vertex="1">
          <mxGeometry x="580" y="360" width="20" height="610" as="geometry" />
        </mxCell>
        <mxCell id="198" value="" style="strokeColor=#DEEDFF;fillColor=#D4E1FF" parent="1" vertex="1">
          <mxGeometry x="600" y="360" width="20" height="610" as="geometry" />
        </mxCell>
        <mxCell id="199" value="" style="strokeColor=#DEEDFF;fillColor=#D4E1FF" parent="1" vertex="1">
          <mxGeometry x="620" y="360" width="20" height="610" as="geometry" />
        </mxCell>
        <mxCell id="200" value="" style="strokeColor=#DEEDFF" parent="1" vertex="1">
          <mxGeometry x="640" y="360" width="20" height="610" as="geometry" />
        </mxCell>
        <mxCell id="201" value="" style="strokeColor=#DEEDFF" parent="1" vertex="1">
          <mxGeometry x="660" y="360" width="20" height="610" as="geometry" />
        </mxCell>
        <mxCell id="202" value="" style="strokeColor=#DEEDFF" parent="1" vertex="1">
          <mxGeometry x="680" y="360" width="20" height="610" as="geometry" />
        </mxCell>
        <mxCell id="203" value="" style="strokeColor=#DEEDFF" parent="1" vertex="1">
          <mxGeometry x="700" y="360" width="20" height="610" as="geometry" />
        </mxCell>
        <mxCell id="204" value="" style="strokeColor=#DEEDFF" parent="1" vertex="1">
          <mxGeometry x="720" y="360" width="20" height="610" as="geometry" />
        </mxCell>
        <mxCell id="205" value="" style="strokeColor=#DEEDFF;fillColor=#D4E1FF" parent="1" vertex="1">
          <mxGeometry x="740" y="360" width="20" height="610" as="geometry" />
        </mxCell>
        <mxCell id="206" value="" style="strokeColor=#DEEDFF;fillColor=#D4E1FF" parent="1" vertex="1">
          <mxGeometry x="760" y="360" width="20" height="610" as="geometry" />
        </mxCell>
        <mxCell id="207" value="" style="strokeColor=#DEEDFF" parent="1" vertex="1">
          <mxGeometry x="780" y="360" width="20" height="610" as="geometry" />
        </mxCell>
        <mxCell id="208" value="" style="strokeColor=#DEEDFF" parent="1" vertex="1">
          <mxGeometry x="800" y="360" width="20" height="610" as="geometry" />
        </mxCell>
        <mxCell id="209" value="" style="strokeColor=#DEEDFF" parent="1" vertex="1">
          <mxGeometry x="820" y="360" width="20" height="610" as="geometry" />
        </mxCell>
        <mxCell id="210" value="" style="strokeColor=#DEEDFF" parent="1" vertex="1">
          <mxGeometry x="840" y="360" width="20" height="610" as="geometry" />
        </mxCell>
        <mxCell id="211" value="" style="strokeColor=#DEEDFF" parent="1" vertex="1">
          <mxGeometry x="860" y="360" width="20" height="610" as="geometry" />
        </mxCell>
        <mxCell id="212" value="" style="strokeColor=#DEEDFF;fillColor=#D4E1FF" parent="1" vertex="1">
          <mxGeometry x="880" y="360" width="20" height="610" as="geometry" />
        </mxCell>
        <mxCell id="213" value="" style="strokeColor=#DEEDFF;fillColor=#D4E1FF" parent="1" vertex="1">
          <mxGeometry x="900" y="360" width="20" height="610" as="geometry" />
        </mxCell>
        <mxCell id="214" value="" style="strokeColor=#DEEDFF" parent="1" vertex="1">
          <mxGeometry x="920" y="360" width="20" height="610" as="geometry" />
        </mxCell>
        <mxCell id="215" value="" style="strokeColor=#DEEDFF" parent="1" vertex="1">
          <mxGeometry x="940" y="360" width="20" height="610" as="geometry" />
        </mxCell>
        <mxCell id="216" value="" style="strokeColor=#DEEDFF" parent="1" vertex="1">
          <mxGeometry x="960" y="360" width="20" height="610" as="geometry" />
        </mxCell>
        <mxCell id="217" value="" style="strokeColor=#DEEDFF" parent="1" vertex="1">
          <mxGeometry x="980" y="360" width="20" height="610" as="geometry" />
        </mxCell>
        <mxCell id="218" value="" style="strokeColor=#DEEDFF" parent="1" vertex="1">
          <mxGeometry x="1000" y="360" width="20" height="610" as="geometry" />
        </mxCell>
        <mxCell id="219" value="" style="strokeColor=#DEEDFF;fillColor=#D4E1FF" parent="1" vertex="1">
          <mxGeometry x="1020" y="360" width="20" height="610" as="geometry" />
        </mxCell>
        <mxCell id="220" value="" style="strokeColor=#DEEDFF;fillColor=#D4E1FF" parent="1" vertex="1">
          <mxGeometry x="1040" y="360" width="20" height="610" as="geometry" />
        </mxCell>
        <mxCell id="221" value="" style="strokeColor=#DEEDFF" parent="1" vertex="1">
          <mxGeometry x="1060" y="360" width="20" height="610" as="geometry" />
        </mxCell>
        <mxCell id="222" value="" style="strokeColor=#DEEDFF" parent="1" vertex="1">
          <mxGeometry x="1080" y="360" width="20" height="610" as="geometry" />
        </mxCell>
        <mxCell id="223" value="" style="strokeColor=#DEEDFF" parent="1" vertex="1">
          <mxGeometry x="1100" y="360" width="20" height="610" as="geometry" />
        </mxCell>
        <mxCell id="224" value="" style="strokeColor=#DEEDFF" parent="1" vertex="1">
          <mxGeometry x="1120" y="360" width="20" height="610" as="geometry" />
        </mxCell>
        <mxCell id="2" value="Objetivos" style="fillColor=#23445D;strokeColor=#FFFFFF;strokeWidth=2;fontColor=#FFFFFF;fontStyle=1" parent="1" vertex="1">
          <mxGeometry x="80" y="320" width="320" height="40" as="geometry" />
        </mxCell>
        <mxCell id="3" value="" style="fillColor=#23445D;strokeColor=#FFFFFF;strokeWidth=2;fontColor=#FFFFFF;fontStyle=1" parent="1" vertex="1">
          <mxGeometry x="40" y="320" width="40" height="40" as="geometry" />
        </mxCell>
        <mxCell id="4" value="1" style="fillColor=#23445D;strokeColor=#FFFFFF;strokeWidth=2;fontColor=#FFFFFF;fontStyle=1" parent="1" vertex="1">
          <mxGeometry x="500" y="320" width="80" height="20" as="geometry" />
        </mxCell>
        <mxCell id="5" value="1" style="fillColor=#23445D;strokeColor=#FFFFFF;strokeWidth=2;fontColor=#FFFFFF;fontStyle=1" parent="1" vertex="1">
          <mxGeometry x="500.0000000000018" y="340.0000000000001" width="20" height="20" as="geometry" />
        </mxCell>
        <mxCell id="6" value="2" style="fillColor=#23445D;strokeColor=#FFFFFF;strokeWidth=2;fontColor=#FFFFFF;fontStyle=1" parent="1" vertex="1">
          <mxGeometry x="520.0000000000018" y="340.0000000000001" width="20" height="20" as="geometry" />
        </mxCell>
        <mxCell id="7" value="3" style="fillColor=#23445D;strokeColor=#FFFFFF;strokeWidth=2;fontColor=#FFFFFF;fontStyle=1" parent="1" vertex="1">
          <mxGeometry x="540.0000000000018" y="340.0000000000001" width="20" height="20" as="geometry" />
        </mxCell>
        <mxCell id="8" value="4" style="fillColor=#23445D;strokeColor=#FFFFFF;strokeWidth=2;fontColor=#FFFFFF;fontStyle=1" parent="1" vertex="1">
          <mxGeometry x="560.0000000000018" y="340.0000000000001" width="20" height="20" as="geometry" />
        </mxCell>
        <mxCell id="12" value="Mes&#xa;Numero semana" style="fillColor=#23445D;strokeColor=#FFFFFF;strokeWidth=2;fontColor=#FFFFFF;fontStyle=1" parent="1" vertex="1">
          <mxGeometry x="400" y="320" width="100" height="40" as="geometry" />
        </mxCell>
        <mxCell id="242" value="" style="shape=mxgraph.flowchart.process;fillColor=#AE4132;strokeColor=#000000;strokeWidth=2;opacity=50" parent="1" vertex="1">
          <mxGeometry x="500" y="380" width="280" height="30" as="geometry" />
        </mxCell>
        <mxCell id="254" value="" style="shape=mxgraph.flowchart.process;fillColor=#AE4132;strokeColor=#000000;strokeWidth=2;opacity=100" parent="1" vertex="1">
          <mxGeometry x="500" y="360" width="640" height="20" as="geometry" />
        </mxCell>
        <mxCell id="KMovM7LpsKUAW9iRTQMW-255" value="4" style="strokeColor=#DEEDFF;fillColor=#CCE5FF" vertex="1" parent="1">
          <mxGeometry x="39.999999999999616" y="840.000000000002" width="40" height="20" as="geometry" />
        </mxCell>
        <mxCell id="KMovM7LpsKUAW9iRTQMW-256" value="Evaluar utilizando pruebas de usabilidad" style="align=left;strokeColor=#DEEDFF;fillColor=#CCE5FF" vertex="1" parent="1">
          <mxGeometry x="80" y="840" width="420" height="20" as="geometry" />
        </mxCell>
        <mxCell id="KMovM7LpsKUAW9iRTQMW-257" value="Ajustar el prototipo basado en los resultados de la &#xa;evaluación." style="align=left;strokeColor=#DEEDFF" vertex="1" parent="1">
          <mxGeometry x="80" y="940" width="420" height="30" as="geometry" />
        </mxCell>
        <mxCell id="KMovM7LpsKUAW9iRTQMW-259" value="2" style="fillColor=#23445D;strokeColor=#FFFFFF;strokeWidth=2;fontColor=#FFFFFF;fontStyle=1" vertex="1" parent="1">
          <mxGeometry x="580" y="320" width="80" height="20" as="geometry" />
        </mxCell>
        <mxCell id="KMovM7LpsKUAW9iRTQMW-260" value="1" style="fillColor=#23445D;strokeColor=#FFFFFF;strokeWidth=2;fontColor=#FFFFFF;fontStyle=1" vertex="1" parent="1">
          <mxGeometry x="580.0000000000018" y="340.0000000000001" width="20" height="20" as="geometry" />
        </mxCell>
        <mxCell id="KMovM7LpsKUAW9iRTQMW-261" value="2" style="fillColor=#23445D;strokeColor=#FFFFFF;strokeWidth=2;fontColor=#FFFFFF;fontStyle=1" vertex="1" parent="1">
          <mxGeometry x="600.0000000000018" y="340.0000000000001" width="20" height="20" as="geometry" />
        </mxCell>
        <mxCell id="KMovM7LpsKUAW9iRTQMW-262" value="3" style="fillColor=#23445D;strokeColor=#FFFFFF;strokeWidth=2;fontColor=#FFFFFF;fontStyle=1" vertex="1" parent="1">
          <mxGeometry x="620.0000000000018" y="340.0000000000001" width="20" height="20" as="geometry" />
        </mxCell>
        <mxCell id="KMovM7LpsKUAW9iRTQMW-263" value="4" style="fillColor=#23445D;strokeColor=#FFFFFF;strokeWidth=2;fontColor=#FFFFFF;fontStyle=1" vertex="1" parent="1">
          <mxGeometry x="640.0000000000018" y="340.0000000000001" width="20" height="20" as="geometry" />
        </mxCell>
        <mxCell id="KMovM7LpsKUAW9iRTQMW-264" value="3" style="fillColor=#23445D;strokeColor=#FFFFFF;strokeWidth=2;fontColor=#FFFFFF;fontStyle=1" vertex="1" parent="1">
          <mxGeometry x="660" y="320" width="80" height="20" as="geometry" />
        </mxCell>
        <mxCell id="KMovM7LpsKUAW9iRTQMW-265" value="1" style="fillColor=#23445D;strokeColor=#FFFFFF;strokeWidth=2;fontColor=#FFFFFF;fontStyle=1" vertex="1" parent="1">
          <mxGeometry x="660.0000000000018" y="340.0000000000001" width="20" height="20" as="geometry" />
        </mxCell>
        <mxCell id="KMovM7LpsKUAW9iRTQMW-266" value="2" style="fillColor=#23445D;strokeColor=#FFFFFF;strokeWidth=2;fontColor=#FFFFFF;fontStyle=1" vertex="1" parent="1">
          <mxGeometry x="680.0000000000018" y="340.0000000000001" width="20" height="20" as="geometry" />
        </mxCell>
        <mxCell id="KMovM7LpsKUAW9iRTQMW-267" value="3" style="fillColor=#23445D;strokeColor=#FFFFFF;strokeWidth=2;fontColor=#FFFFFF;fontStyle=1" vertex="1" parent="1">
          <mxGeometry x="700.0000000000018" y="340.0000000000001" width="20" height="20" as="geometry" />
        </mxCell>
        <mxCell id="KMovM7LpsKUAW9iRTQMW-268" value="4" style="fillColor=#23445D;strokeColor=#FFFFFF;strokeWidth=2;fontColor=#FFFFFF;fontStyle=1" vertex="1" parent="1">
          <mxGeometry x="720.0000000000018" y="340.0000000000001" width="20" height="20" as="geometry" />
        </mxCell>
        <mxCell id="KMovM7LpsKUAW9iRTQMW-269" value="4" style="fillColor=#23445D;strokeColor=#FFFFFF;strokeWidth=2;fontColor=#FFFFFF;fontStyle=1" vertex="1" parent="1">
          <mxGeometry x="740" y="320" width="80" height="20" as="geometry" />
        </mxCell>
        <mxCell id="KMovM7LpsKUAW9iRTQMW-270" value="1" style="fillColor=#23445D;strokeColor=#FFFFFF;strokeWidth=2;fontColor=#FFFFFF;fontStyle=1" vertex="1" parent="1">
          <mxGeometry x="740.0000000000018" y="340.0000000000001" width="20" height="20" as="geometry" />
        </mxCell>
        <mxCell id="KMovM7LpsKUAW9iRTQMW-271" value="2" style="fillColor=#23445D;strokeColor=#FFFFFF;strokeWidth=2;fontColor=#FFFFFF;fontStyle=1" vertex="1" parent="1">
          <mxGeometry x="760.0000000000018" y="340.0000000000001" width="20" height="20" as="geometry" />
        </mxCell>
        <mxCell id="KMovM7LpsKUAW9iRTQMW-272" value="3" style="fillColor=#23445D;strokeColor=#FFFFFF;strokeWidth=2;fontColor=#FFFFFF;fontStyle=1" vertex="1" parent="1">
          <mxGeometry x="780.0000000000018" y="340.0000000000001" width="20" height="20" as="geometry" />
        </mxCell>
        <mxCell id="KMovM7LpsKUAW9iRTQMW-273" value="4" style="fillColor=#23445D;strokeColor=#FFFFFF;strokeWidth=2;fontColor=#FFFFFF;fontStyle=1" vertex="1" parent="1">
          <mxGeometry x="800.0000000000018" y="340.0000000000001" width="20" height="20" as="geometry" />
        </mxCell>
        <mxCell id="KMovM7LpsKUAW9iRTQMW-274" value="5" style="fillColor=#23445D;strokeColor=#FFFFFF;strokeWidth=2;fontColor=#FFFFFF;fontStyle=1" vertex="1" parent="1">
          <mxGeometry x="820" y="320" width="80" height="20" as="geometry" />
        </mxCell>
        <mxCell id="KMovM7LpsKUAW9iRTQMW-275" value="1" style="fillColor=#23445D;strokeColor=#FFFFFF;strokeWidth=2;fontColor=#FFFFFF;fontStyle=1" vertex="1" parent="1">
          <mxGeometry x="820.0000000000018" y="340.0000000000001" width="20" height="20" as="geometry" />
        </mxCell>
        <mxCell id="KMovM7LpsKUAW9iRTQMW-276" value="2" style="fillColor=#23445D;strokeColor=#FFFFFF;strokeWidth=2;fontColor=#FFFFFF;fontStyle=1" vertex="1" parent="1">
          <mxGeometry x="840.0000000000018" y="340.0000000000001" width="20" height="20" as="geometry" />
        </mxCell>
        <mxCell id="KMovM7LpsKUAW9iRTQMW-277" value="3" style="fillColor=#23445D;strokeColor=#FFFFFF;strokeWidth=2;fontColor=#FFFFFF;fontStyle=1" vertex="1" parent="1">
          <mxGeometry x="860.0000000000018" y="340.0000000000001" width="20" height="20" as="geometry" />
        </mxCell>
        <mxCell id="KMovM7LpsKUAW9iRTQMW-278" value="4" style="fillColor=#23445D;strokeColor=#FFFFFF;strokeWidth=2;fontColor=#FFFFFF;fontStyle=1" vertex="1" parent="1">
          <mxGeometry x="880.0000000000018" y="340.0000000000001" width="20" height="20" as="geometry" />
        </mxCell>
        <mxCell id="KMovM7LpsKUAW9iRTQMW-279" value="6" style="fillColor=#23445D;strokeColor=#FFFFFF;strokeWidth=2;fontColor=#FFFFFF;fontStyle=1" vertex="1" parent="1">
          <mxGeometry x="900" y="320" width="80" height="20" as="geometry" />
        </mxCell>
        <mxCell id="KMovM7LpsKUAW9iRTQMW-280" value="1" style="fillColor=#23445D;strokeColor=#FFFFFF;strokeWidth=2;fontColor=#FFFFFF;fontStyle=1" vertex="1" parent="1">
          <mxGeometry x="900.0000000000018" y="340.0000000000001" width="20" height="20" as="geometry" />
        </mxCell>
        <mxCell id="KMovM7LpsKUAW9iRTQMW-281" value="2" style="fillColor=#23445D;strokeColor=#FFFFFF;strokeWidth=2;fontColor=#FFFFFF;fontStyle=1" vertex="1" parent="1">
          <mxGeometry x="920.0000000000018" y="340.0000000000001" width="20" height="20" as="geometry" />
        </mxCell>
        <mxCell id="KMovM7LpsKUAW9iRTQMW-282" value="3" style="fillColor=#23445D;strokeColor=#FFFFFF;strokeWidth=2;fontColor=#FFFFFF;fontStyle=1" vertex="1" parent="1">
          <mxGeometry x="940.0000000000018" y="340.0000000000001" width="20" height="20" as="geometry" />
        </mxCell>
        <mxCell id="KMovM7LpsKUAW9iRTQMW-283" value="4" style="fillColor=#23445D;strokeColor=#FFFFFF;strokeWidth=2;fontColor=#FFFFFF;fontStyle=1" vertex="1" parent="1">
          <mxGeometry x="960.0000000000018" y="340.0000000000001" width="20" height="20" as="geometry" />
        </mxCell>
        <mxCell id="KMovM7LpsKUAW9iRTQMW-284" value="7" style="fillColor=#23445D;strokeColor=#FFFFFF;strokeWidth=2;fontColor=#FFFFFF;fontStyle=1" vertex="1" parent="1">
          <mxGeometry x="980" y="320" width="80" height="20" as="geometry" />
        </mxCell>
        <mxCell id="KMovM7LpsKUAW9iRTQMW-285" value="1" style="fillColor=#23445D;strokeColor=#FFFFFF;strokeWidth=2;fontColor=#FFFFFF;fontStyle=1" vertex="1" parent="1">
          <mxGeometry x="980.0000000000018" y="340.0000000000001" width="20" height="20" as="geometry" />
        </mxCell>
        <mxCell id="KMovM7LpsKUAW9iRTQMW-286" value="2" style="fillColor=#23445D;strokeColor=#FFFFFF;strokeWidth=2;fontColor=#FFFFFF;fontStyle=1" vertex="1" parent="1">
          <mxGeometry x="1000.0000000000018" y="340.0000000000001" width="20" height="20" as="geometry" />
        </mxCell>
        <mxCell id="KMovM7LpsKUAW9iRTQMW-287" value="3" style="fillColor=#23445D;strokeColor=#FFFFFF;strokeWidth=2;fontColor=#FFFFFF;fontStyle=1" vertex="1" parent="1">
          <mxGeometry x="1020.0000000000018" y="340.0000000000001" width="20" height="20" as="geometry" />
        </mxCell>
        <mxCell id="KMovM7LpsKUAW9iRTQMW-288" value="4" style="fillColor=#23445D;strokeColor=#FFFFFF;strokeWidth=2;fontColor=#FFFFFF;fontStyle=1" vertex="1" parent="1">
          <mxGeometry x="1040.0000000000018" y="340.0000000000001" width="20" height="20" as="geometry" />
        </mxCell>
        <mxCell id="KMovM7LpsKUAW9iRTQMW-289" value="8" style="fillColor=#23445D;strokeColor=#FFFFFF;strokeWidth=2;fontColor=#FFFFFF;fontStyle=1" vertex="1" parent="1">
          <mxGeometry x="1060" y="320" width="80" height="20" as="geometry" />
        </mxCell>
        <mxCell id="KMovM7LpsKUAW9iRTQMW-290" value="1" style="fillColor=#23445D;strokeColor=#FFFFFF;strokeWidth=2;fontColor=#FFFFFF;fontStyle=1" vertex="1" parent="1">
          <mxGeometry x="1060.0000000000018" y="340.0000000000001" width="20" height="20" as="geometry" />
        </mxCell>
        <mxCell id="KMovM7LpsKUAW9iRTQMW-291" value="2" style="fillColor=#23445D;strokeColor=#FFFFFF;strokeWidth=2;fontColor=#FFFFFF;fontStyle=1" vertex="1" parent="1">
          <mxGeometry x="1080.0000000000018" y="340.0000000000001" width="20" height="20" as="geometry" />
        </mxCell>
        <mxCell id="KMovM7LpsKUAW9iRTQMW-292" value="3" style="fillColor=#23445D;strokeColor=#FFFFFF;strokeWidth=2;fontColor=#FFFFFF;fontStyle=1" vertex="1" parent="1">
          <mxGeometry x="1100.0000000000018" y="340.0000000000001" width="20" height="20" as="geometry" />
        </mxCell>
        <mxCell id="KMovM7LpsKUAW9iRTQMW-293" value="4" style="fillColor=#23445D;strokeColor=#FFFFFF;strokeWidth=2;fontColor=#FFFFFF;fontStyle=1" vertex="1" parent="1">
          <mxGeometry x="1120.0000000000018" y="340.0000000000001" width="20" height="20" as="geometry" />
        </mxCell>
        <mxCell id="KMovM7LpsKUAW9iRTQMW-294" value="" style="shape=mxgraph.flowchart.process;fillColor=#AE4132;strokeColor=#000000;strokeWidth=2;opacity=50" vertex="1" parent="1">
          <mxGeometry x="500" y="410" width="60" height="30" as="geometry" />
        </mxCell>
        <mxCell id="KMovM7LpsKUAW9iRTQMW-295" value="" style="shape=mxgraph.flowchart.process;fillColor=#AE4132;strokeColor=#000000;strokeWidth=2;opacity=50" vertex="1" parent="1">
          <mxGeometry x="556.5" y="440" width="60" height="30" as="geometry" />
        </mxCell>
        <mxCell id="KMovM7LpsKUAW9iRTQMW-296" value="" style="shape=mxgraph.flowchart.process;fillColor=#AE4132;strokeColor=#000000;strokeWidth=2;opacity=50" vertex="1" parent="1">
          <mxGeometry x="616.5" y="470" width="60" height="30" as="geometry" />
        </mxCell>
        <mxCell id="KMovM7LpsKUAW9iRTQMW-297" value="" style="shape=mxgraph.flowchart.process;fillColor=#AE4132;strokeColor=#000000;strokeWidth=2;opacity=50" vertex="1" parent="1">
          <mxGeometry x="676.5" y="500" width="60" height="30" as="geometry" />
        </mxCell>
        <mxCell id="KMovM7LpsKUAW9iRTQMW-298" value="" style="shape=mxgraph.flowchart.process;fillColor=#AE4132;strokeColor=#000000;strokeWidth=2;opacity=50" vertex="1" parent="1">
          <mxGeometry x="736.5" y="530" width="43.5" height="30" as="geometry" />
        </mxCell>
        <mxCell id="KMovM7LpsKUAW9iRTQMW-299" value="" style="shape=mxgraph.flowchart.process;fillColor=#AE4132;strokeColor=#000000;strokeWidth=2;opacity=50" vertex="1" parent="1">
          <mxGeometry x="660" y="560" width="120" height="20" as="geometry" />
        </mxCell>
        <mxCell id="KMovM7LpsKUAW9iRTQMW-301" value="" style="shape=mxgraph.flowchart.process;fillColor=#AE4132;strokeColor=#000000;strokeWidth=2;opacity=50" vertex="1" parent="1">
          <mxGeometry x="680" y="580" width="40" height="30" as="geometry" />
        </mxCell>
        <mxCell id="KMovM7LpsKUAW9iRTQMW-302" value="" style="shape=mxgraph.flowchart.process;fillColor=#AE4132;strokeColor=#000000;strokeWidth=2;opacity=50" vertex="1" parent="1">
          <mxGeometry x="720" y="610" width="60" height="30" as="geometry" />
        </mxCell>
        <mxCell id="KMovM7LpsKUAW9iRTQMW-303" value="" style="shape=mxgraph.flowchart.process;fillColor=#AE4132;strokeColor=#000000;strokeWidth=2;opacity=50" vertex="1" parent="1">
          <mxGeometry x="720" y="640" width="60" height="20" as="geometry" />
        </mxCell>
        <mxCell id="KMovM7LpsKUAW9iRTQMW-304" value="" style="shape=mxgraph.flowchart.process;fillColor=#AE4132;strokeColor=#000000;strokeWidth=2;opacity=50" vertex="1" parent="1">
          <mxGeometry x="780" y="660" width="60" height="30" as="geometry" />
        </mxCell>
        <mxCell id="KMovM7LpsKUAW9iRTQMW-305" value="" style="shape=mxgraph.flowchart.process;fillColor=#AE4132;strokeColor=#000000;strokeWidth=2;opacity=50" vertex="1" parent="1">
          <mxGeometry x="800" y="690" width="40" height="20" as="geometry" />
        </mxCell>
        <mxCell id="KMovM7LpsKUAW9iRTQMW-306" value="" style="shape=mxgraph.flowchart.process;fillColor=#AE4132;strokeColor=#000000;strokeWidth=2;opacity=50" vertex="1" parent="1">
          <mxGeometry x="840" y="710" width="300" height="20" as="geometry" />
        </mxCell>
        <mxCell id="KMovM7LpsKUAW9iRTQMW-307" value="" style="shape=mxgraph.flowchart.process;fillColor=#AE4132;strokeColor=#000000;strokeWidth=2;opacity=50" vertex="1" parent="1">
          <mxGeometry x="840" y="730" width="60" height="20" as="geometry" />
        </mxCell>
        <mxCell id="KMovM7LpsKUAW9iRTQMW-308" value="" style="shape=mxgraph.flowchart.process;fillColor=#AE4132;strokeColor=#000000;strokeWidth=2;opacity=50" vertex="1" parent="1">
          <mxGeometry x="900" y="750" width="80" height="30" as="geometry" />
        </mxCell>
        <mxCell id="KMovM7LpsKUAW9iRTQMW-309" value="" style="shape=mxgraph.flowchart.process;fillColor=#AE4132;strokeColor=#000000;strokeWidth=2;opacity=50" vertex="1" parent="1">
          <mxGeometry x="960" y="780" width="60" height="20" as="geometry" />
        </mxCell>
        <mxCell id="KMovM7LpsKUAW9iRTQMW-310" value="" style="shape=mxgraph.flowchart.process;fillColor=#AE4132;strokeColor=#000000;strokeWidth=2;opacity=50" vertex="1" parent="1">
          <mxGeometry x="1020" y="800" width="60" height="20" as="geometry" />
        </mxCell>
        <mxCell id="KMovM7LpsKUAW9iRTQMW-311" value="" style="shape=mxgraph.flowchart.process;fillColor=#AE4132;strokeColor=#000000;strokeWidth=2;opacity=50" vertex="1" parent="1">
          <mxGeometry x="980" y="840" width="160" height="20" as="geometry" />
        </mxCell>
        <mxCell id="KMovM7LpsKUAW9iRTQMW-312" value="" style="shape=mxgraph.flowchart.process;fillColor=#AE4132;strokeColor=#000000;strokeWidth=2;opacity=50" vertex="1" parent="1">
          <mxGeometry x="1060" y="820" width="60" height="20" as="geometry" />
        </mxCell>
        <mxCell id="KMovM7LpsKUAW9iRTQMW-314" value="" style="shape=mxgraph.flowchart.process;fillColor=#AE4132;strokeColor=#000000;strokeWidth=2;opacity=50" vertex="1" parent="1">
          <mxGeometry x="1020" y="860" width="40" height="20" as="geometry" />
        </mxCell>
        <mxCell id="KMovM7LpsKUAW9iRTQMW-315" value="" style="shape=mxgraph.flowchart.process;fillColor=#AE4132;strokeColor=#000000;strokeWidth=2;opacity=50" vertex="1" parent="1">
          <mxGeometry x="1060" y="880" width="40" height="30" as="geometry" />
        </mxCell>
        <mxCell id="KMovM7LpsKUAW9iRTQMW-316" value="" style="shape=mxgraph.flowchart.process;fillColor=#AE4132;strokeColor=#000000;strokeWidth=2;opacity=50" vertex="1" parent="1">
          <mxGeometry x="1080" y="910" width="40" height="30" as="geometry" />
        </mxCell>
        <mxCell id="KMovM7LpsKUAW9iRTQMW-317" value="" style="shape=mxgraph.flowchart.process;fillColor=#AE4132;strokeColor=#000000;strokeWidth=2;opacity=50" vertex="1" parent="1">
          <mxGeometry x="1100" y="940" width="40" height="30" as="geometry" />
        </mxCell>
      </root>
    </mxGraphModel>
  </diagram>
</mxfile>
